<svg xmlns="http://www.w3.org/2000/svg" viewBox="0 0 3.8 3.9"><defs><style>.a{fill:#fff;}</style></defs><path class="a" d="M.1,3.9.3,3A3.6,3.6,0,0,1,.1,2,1.8,1.8,0,0,1,2,.1,1.8,1.8,0,0,1,3.9,2,1.8,1.8,0,0,1,2,3.9l-.9-.2Zm1-.6h.1l.8.2A1.6,1.6,0,0,0,3.6,2,1.6,1.6,0,0,0,2,.4,1.6,1.6,0,0,0,.4,2a1.6,1.6,0,0,0,.3.9h0l-.2.6Z" transform="translate(-0.1 -0.1)"/><path class="a" d="M1.5,1.1H1.2L1,1.4a1.9,1.9,0,0,0,.2.7,3.5,3.5,0,0,0,1.1.8h.5L3,2.6H3a.1.1,0,0,0-.1-.1l-.4-.2H2.4v.3H2.2c-.1-.1-.5-.2-.7-.6h0l.2-.2h0l-.2-.5Z" transform="translate(-0.1 -0.1)"/></svg>