<?xml version="1.0" encoding="utf-8"?>
<!-- Generator: Adobe Illustrator 24.2.3, SVG Export Plug-In . SVG Version: 6.00 Build 0)  -->
<svg version="1.1" id="Layer_1" xmlns="http://www.w3.org/2000/svg" xmlns:xlink="http://www.w3.org/1999/xlink" x="0px" y="0px"
	 viewBox="0 0 160 160" style="enable-background:new 0 0 160 160;" xml:space="preserve">
<style type="text/css">
	.st0{fill:#E6292C;}
	.st1{fill:none;}
	.st2{fill:#020203;}
	.st3{font-family:'Ubuntu-Medium';}
	.st4{font-size:13.685px;}
	.st5{font-family:'Ubuntu-Regular';}
	.st6{font-family:'Ubuntu-Light';}
</style>
<g>
	<g>
		<path class="st0" d="M23.1,68.2l-12.6,8.5c1.4-4.9,6-8.5,11.4-8.5C22.3,68.1,22.7,68.2,23.1,68.2z"/>
		<path class="st0" d="M15.3,76.4L10,80c0-0.7,0.1-1.3,0.2-2l14.3-9.6c0.4,0.1,0.8,0.2,1.2,0.3l-10.3,6.9V76.4z"/>
		<path class="st0" d="M33.7,80c0,6.5-5.3,11.9-11.9,11.9c0,0,8.2-5.6,9.9-7c0.2-0.6,0.3-1,0.4-1.6l-11.7,8.5
			c-0.7-0.1-1.3-0.2-1.9-0.4c0,0,11.1-7.1,13.6-9v0c0-0.5-0.1-1.1-0.2-1.6c-2.7,1.7-14.4,10-14.7,10.2h0c-0.5-0.2-1-0.5-1.5-0.8
			c0,0,11.6-7.6,13.2-8.7c1-0.7,2.1-1.3,2.6-1.8c-0.2-0.5-0.4-1-0.7-1.4l-8.6,5.3v1.3l-7.5,4.6c-0.4-0.3-0.9-0.7-1.3-1.1l13.6-8.9
			c0,0,2.5-1.2,3.2-2.1v0c-0.3-0.4-0.7-0.9-1-1.3l-8.7,5.4v1.1l-7.8,4.9c-0.4-0.5-0.8-1-1.1-1.6l16.7-10.7c-0.4-0.3-0.9-0.7-1.3-0.9
			l-8.9,5.5v0.9l-6.9,4.4c-0.2-0.4-0.4-0.9-0.5-1.3l15.4-10c-0.7-0.3-1.4-0.6-2.1-0.7l-7.2,4.7V79l-6.3,4c-0.1-0.6-0.3-1.2-0.3-1.8
			l17.6-11.5h0C31.2,71.7,33.7,75.6,33.7,80z"/>
		<path class="st1" d="M10.5,76.7C10.5,76.7,10.5,76.7,10.5,76.7L10.5,76.7L10.5,76.7z"/>
		<polyline class="st1" points="10.4,83 16.7,79 16.7,77.7 23.9,73 		"/>
		<line class="st1" x1="26" y1="73.7" x2="10.6" y2="83.8"/>
		<polyline class="st1" points="11.2,85.1 18.1,80.7 18.1,79.8 27,74.3 		"/>
		<line class="st1" x1="28.3" y1="75.2" x2="11.6" y2="85.9"/>
		<polyline class="st1" points="29.2,76.1 20.5,81.5 20.5,82.6 12.7,87.5 12.7,87.5 		"/>
		<path class="st1" d="M13.4,88.3l13.6-8.9c0,0,2.5-1.2,3.2-2.1v0"/>
		<polyline class="st1" points="30.8,78.2 22.2,83.5 22.2,84.8 14.7,89.4 14.7,89.4 		"/>
		<path class="st1" d="M15.6,90.1c0,0,11.6-7.6,13.2-8.7c1-0.7,2.1-1.3,2.6-1.8"/>
		<path class="st1" d="M17.2,90.9c0.3-0.2,12-8.5,14.7-10.2"/>
		<path class="st1" d="M15.6,90.1c0.5,0.3,1,0.6,1.5,0.8h0l0,0"/>
		<path class="st1" d="M18.5,91.4L18.5,91.4c0,0,11.1-7.1,13.6-9v0"/>
		<path class="st1" d="M21.9,91.9c0,0,8.2-5.3,9.9-6.8"/>
		<line class="st1" x1="32.1" y1="83.3" x2="20.4" y2="91.8"/>
		<path class="st1" d="M26,73.7c-0.7-0.3-1.4-0.6-2.1-0.7"/>
		<path class="st1" d="M30.3,77.4L30.3,77.4c-0.3-0.5-0.7-0.9-1-1.3"/>
		<path class="st1" d="M32.1,82.3L32.1,82.3c0-0.5-0.1-1.1-0.2-1.6"/>
		<path class="st1" d="M32.1,83.3c0,0.6-0.2,1.2-0.4,1.8"/>
		<path class="st1" d="M31.5,79.6c-0.2-0.5-0.4-1-0.7-1.4"/>
		<path class="st1" d="M28.3,75.2c-0.4-0.3-0.9-0.7-1.3-0.9"/>
	</g>
	<text transform="matrix(1 0 0 1 35.9917 84.8546)"><tspan x="0" y="0" class="st2 st3 st4">SWIFT</tspan><tspan x="41.5" y="0" class="st2 st5 st4"> </tspan><tspan x="45.1" y="0" class="st2 st6 st4">NETWORKS</tspan></text>
</g>
</svg>
