<?xml version="1.0" encoding="utf-8"?>
<!-- Generator: Adobe Illustrator 24.2.3, SVG Export Plug-In . SVG Version: 6.00 Build 0)  -->
<svg version="1.1" id="Layer_1" xmlns="http://www.w3.org/2000/svg" xmlns:xlink="http://www.w3.org/1999/xlink" x="0px" y="0px"
	 viewBox="0 0 512 512" style="enable-background:new 0 0 512 512;" xml:space="preserve">
<style type="text/css">
	.st0{fill:#E6292C;}
	.st1{fill:none;}
	.st2{fill:#020203;}
	.st3{font-family:'Ubuntu-Medium';}
	.st4{font-size:37.2806px;}
	.st5{letter-spacing:1;}
	.st6{font-family:'Ubuntu-Regular';}
	.st7{font-family:'Ubuntu-Light';}
	.st8{letter-spacing:-1;}
</style>
<g>
	<g>
		<path class="st0" d="M100.9,223.9L66.6,247c3.9-13.4,16.3-23.3,31-23.3C98.7,223.7,99.8,223.8,100.9,223.9z"/>
		<path class="st0" d="M79.7,246.2L65.3,256c0-1.9,0.2-3.7,0.5-5.4l38.8-26.1c1.1,0.2,2.2,0.5,3.2,0.9l-28.2,18.7V246.2z"/>
		<path class="st0" d="M129.9,256c0,17.8-14.5,32.3-32.3,32.3c0,0,22.4-15.1,26.8-19.1c0.5-1.6,0.9-2.6,1-4.3L93.5,288
			c-1.8-0.2-3.5-0.6-5.2-1.1c0,0,30.3-19.3,37.1-24.6v0c-0.1-1.5-0.3-2.9-0.7-4.4c-7.2,4.6-39.2,27.2-39.9,27.7h0
			c-1.4-0.6-2.8-1.3-4.1-2.2c0,0,31.5-20.6,36-23.6c2.9-1.9,5.6-3.4,7.2-4.9c-0.5-1.3-1.1-2.6-1.8-3.9l-23.4,14.5v3.4L78,281.7
			c-1.2-0.9-2.4-1.9-3.4-3l37.2-24.2c0,0,6.9-3.2,8.8-5.6v0c-0.9-1.2-1.8-2.4-2.8-3.5l-23.8,14.8v2.9l-21.2,13.4
			c-1.1-1.4-2.1-2.8-3-4.3l45.5-29.2c-1.1-0.9-2.3-1.8-3.6-2.6l-24.3,15v2.4l-18.8,12c-0.6-1.2-1-2.4-1.5-3.6l41.9-27.4
			c-1.8-0.9-3.7-1.6-5.7-2l-19.7,12.7v3.6L66.3,264c-0.4-1.6-0.7-3.3-0.9-5l47.9-31.3h0C123.2,233.3,129.9,243.9,129.9,256z"/>
		<path class="st1" d="M66.6,247c0,0.1-0.1,0.1-0.1,0.2L66.6,247L66.6,247z"/>
		<polyline class="st1" points="66.3,264 83.4,253.2 83.4,249.6 103.1,236.9 		"/>
		<line class="st1" x1="108.9" y1="239" x2="67" y2="266.3"/>
		<polyline class="st1" points="68.5,269.9 87.3,257.9 87.3,255.5 111.6,240.4 		"/>
		<line class="st1" x1="115.2" y1="243" x2="69.7" y2="272.2"/>
		<polyline class="st1" points="117.7,245.4 93.9,260.2 93.9,263.1 72.7,276.5 72.7,276.5 		"/>
		<path class="st1" d="M74.6,278.7l37.2-24.2c0,0,6.9-3.2,8.8-5.6v0"/>
		<polyline class="st1" points="122,251.1 98.6,265.6 98.6,269 78,281.7 78.1,281.7 		"/>
		<path class="st1" d="M80.6,283.5c0,0,31.5-20.6,36-23.6c2.9-1.9,5.6-3.4,7.2-4.9"/>
		<path class="st1" d="M84.8,285.6c0.8-0.6,32.7-23.1,39.9-27.7"/>
		<path class="st1" d="M80.6,283.5c1.3,0.8,2.7,1.5,4.1,2.2h0l0.1,0.1"/>
		<path class="st1" d="M88.3,286.9L88.3,286.9c0,0,30.3-19.3,37.1-24.6v0"/>
		<path class="st1" d="M97.6,288.3c0,0,22.4-14.5,26.8-18.5"/>
		<line class="st1" x1="125.4" y1="264.9" x2="93.5" y2="288"/>
		<path class="st1" d="M108.9,239c-1.8-0.9-3.7-1.6-5.7-2"/>
		<path class="st1" d="M120.6,248.9L120.6,248.9c-0.9-1.2-1.8-2.4-2.8-3.5"/>
		<path class="st1" d="M125.4,262.3L125.4,262.3c-0.1-1.5-0.3-2.9-0.7-4.4"/>
		<path class="st1" d="M125.4,264.9c-0.1,1.7-0.4,3.3-1,4.9"/>
		<path class="st1" d="M123.8,255c-0.5-1.3-1.1-2.6-1.8-3.9"/>
		<path class="st1" d="M115.2,243c-1.1-0.9-2.3-1.8-3.6-2.6"/>
	</g>
	<text transform="matrix(1 0 0 1 136.1123 269.2246)"><tspan x="0" y="0" class="st2 st3 st4 st5">SWIFT</tspan><tspan x="113.1" y="0" class="st2 st6 st4 st5"> </tspan><tspan x="122.8" y="0" class="st2 st7 st4 st8">NETWORKS</tspan></text>
</g>
</svg>
