<?xml version="1.0" encoding="utf-8"?>
<!-- Generator: Adobe Illustrator 24.2.3, SVG Export Plug-In . SVG Version: 6.00 Build 0)  -->
<svg version="1.1" id="Layer_1" xmlns="http://www.w3.org/2000/svg" xmlns:xlink="http://www.w3.org/1999/xlink" x="0px" y="0px"
	 viewBox="0 0 238 42" style="enable-background:new 0 0 238 42;" xml:space="preserve">
<style type="text/css">
	.st0{fill:#FFFFFF;}
	.st1{fill:#E6292C;}
	.st2{fill:none;}
</style>
<g>
	<g>
		<circle class="st0" cx="70.3" cy="21" r="10"/>
		<g>
			<path class="st1" d="M71.3,11.3l-10.4,7c1.2-4.1,4.9-7.1,9.4-7.1C70.7,11.2,71,11.2,71.3,11.3z"/>
			<path class="st1" d="M64.9,18l-4.4,3c0-0.6,0-1.1,0.1-1.7l11.8-7.9c0.3,0.1,0.7,0.2,1,0.3l-8.5,5.7V18z"/>
			<path class="st1" d="M80.1,21c0,5.4-4.4,9.8-9.8,9.8c0,0,6.8-4.6,8.1-5.8c0.2-0.5,0.3-0.8,0.3-1.3l-9.7,7
				c-0.5-0.1-1.1-0.2-1.6-0.3c0,0,9.2-5.8,11.2-7.5v0c0-0.4-0.1-0.9-0.2-1.3C76.4,23,66.7,29.8,66.4,30h0c-0.4-0.2-0.9-0.4-1.3-0.7
				c0,0,9.6-6.3,10.9-7.2c0.9-0.6,1.7-1,2.2-1.5c-0.2-0.4-0.3-0.8-0.6-1.2l-7.1,4.4v1l-6.2,3.8c-0.4-0.3-0.7-0.6-1-0.9l11.3-7.3
				c0,0,2.1-1,2.7-1.7v0c-0.3-0.4-0.5-0.7-0.9-1.1l-7.2,4.5v0.9l-6.4,4.1c-0.3-0.4-0.6-0.8-0.9-1.3l13.8-8.9
				c-0.3-0.3-0.7-0.5-1.1-0.8l-7.4,4.6v0.7l-5.7,3.6c-0.2-0.4-0.3-0.7-0.4-1.1l12.7-8.3c-0.5-0.3-1.1-0.5-1.7-0.6l-6,3.9v1.1
				l-5.2,3.3c-0.1-0.5-0.2-1-0.3-1.5l14.5-9.5h0C78.1,14.1,80.1,17.3,80.1,21z"/>
			<path class="st2" d="M60.9,18.3C60.9,18.3,60.9,18.3,60.9,18.3L60.9,18.3L60.9,18.3z"/>
			<polyline class="st2" points="60.8,23.4 66,20.1 66,19.1 72,15.2 			"/>
			<line class="st2" x1="73.7" y1="15.8" x2="61" y2="24.1"/>
			<polyline class="st2" points="61.5,25.2 67.2,21.6 67.2,20.8 74.6,16.3 			"/>
			<line class="st2" x1="75.7" y1="17.1" x2="61.9" y2="25.9"/>
			<polyline class="st2" points="76.4,17.8 69.2,22.3 69.2,23.1 62.8,27.2 62.8,27.2 			"/>
			<path class="st2" d="M63.4,27.9l11.3-7.3c0,0,2.1-1,2.7-1.7v0"/>
			<polyline class="st2" points="77.7,19.5 70.6,23.9 70.6,25 64.4,28.8 64.4,28.8 			"/>
			<path class="st2" d="M65.2,29.3c0,0,9.6-6.3,10.9-7.2c0.9-0.6,1.7-1,2.2-1.5"/>
			<path class="st2" d="M66.4,30c0.2-0.2,9.9-7,12.1-8.4"/>
			<path class="st2" d="M65.2,29.3c0.4,0.3,0.8,0.5,1.3,0.7h0l0,0"/>
			<path class="st2" d="M67.5,30.4L67.5,30.4c0,0,9.2-5.8,11.2-7.5v0"/>
			<path class="st2" d="M70.3,30.8c0,0,6.8-4.4,8.1-5.6"/>
			<line class="st2" x1="78.8" y1="23.7" x2="69.1" y2="30.7"/>
			<path class="st2" d="M73.7,15.8c-0.5-0.3-1.1-0.5-1.7-0.6"/>
			<path class="st2" d="M77.3,18.8L77.3,18.8c-0.3-0.4-0.5-0.7-0.9-1.1"/>
			<path class="st2" d="M78.8,22.9L78.8,22.9c0-0.4-0.1-0.9-0.2-1.3"/>
			<path class="st2" d="M78.8,23.7c0,0.5-0.1,1-0.3,1.5"/>
			<path class="st2" d="M78.3,20.7c-0.2-0.4-0.3-0.8-0.6-1.2"/>
			<path class="st2" d="M75.7,17.1c-0.3-0.3-0.7-0.5-1.1-0.8"/>
		</g>
	</g>
	<g>
		<path class="st0" d="M85.2,23.5c0.2,0,0.5,0,0.6-0.1c0.2,0,0.3-0.1,0.4-0.2c0.1-0.1,0.2-0.2,0.2-0.3c0-0.1,0.1-0.2,0.1-0.3
			c0-0.3-0.1-0.5-0.4-0.6c-0.2-0.2-0.7-0.4-1.2-0.5c-0.3-0.1-0.5-0.2-0.8-0.3c-0.3-0.1-0.5-0.3-0.7-0.4c-0.2-0.2-0.4-0.4-0.5-0.6
			c-0.1-0.3-0.2-0.6-0.2-0.9s0.1-0.7,0.2-1c0.1-0.3,0.3-0.5,0.6-0.7c0.2-0.2,0.5-0.4,0.9-0.5c0.4-0.1,0.8-0.2,1.2-0.2
			c0.5,0,1,0.1,1.4,0.2c0.4,0.1,0.7,0.2,0.9,0.4l-0.5,1.4c-0.2-0.1-0.5-0.2-0.7-0.3c-0.3-0.1-0.6-0.1-1-0.1c-0.4,0-0.7,0.1-0.9,0.2
			c-0.2,0.1-0.3,0.3-0.3,0.5c0,0.1,0,0.3,0.1,0.4s0.2,0.2,0.3,0.3c0.1,0.1,0.3,0.2,0.4,0.2c0.2,0.1,0.3,0.1,0.5,0.2
			c0.4,0.2,0.8,0.3,1.1,0.4c0.3,0.1,0.6,0.3,0.8,0.5c0.2,0.2,0.3,0.4,0.4,0.7c0.1,0.3,0.1,0.6,0.1,1c0,0.7-0.3,1.3-0.8,1.7
			c-0.5,0.4-1.3,0.6-2.3,0.6c-0.3,0-0.7,0-0.9-0.1c-0.3,0-0.5-0.1-0.7-0.2c-0.2-0.1-0.4-0.1-0.6-0.2c-0.2-0.1-0.3-0.1-0.4-0.2
			l0.5-1.4c0.2,0.1,0.5,0.2,0.9,0.3C84.2,23.5,84.7,23.5,85.2,23.5z"/>
		<path class="st0" d="M95.1,17.9c0.1,0.3,0.2,0.7,0.3,1c0.1,0.4,0.2,0.8,0.3,1.2c0.1,0.4,0.2,0.8,0.4,1.2c0.1,0.4,0.3,0.8,0.4,1.2
			c0.1-0.4,0.2-0.8,0.3-1.3c0.1-0.5,0.2-0.9,0.3-1.4c0.1-0.5,0.2-1,0.3-1.4c0.1-0.5,0.2-0.9,0.2-1.4h1.8c-0.3,1.3-0.6,2.6-0.9,4
			c-0.3,1.3-0.7,2.6-1.1,3.8h-1.6c-0.3-0.7-0.5-1.5-0.8-2.3c-0.2-0.8-0.5-1.6-0.7-2.4c-0.2,0.8-0.5,1.6-0.7,2.4
			c-0.2,0.8-0.5,1.6-0.8,2.3h-1.6c-0.4-1.2-0.8-2.5-1.1-3.8c-0.3-1.3-0.6-2.7-0.9-4H91c0.1,0.4,0.2,0.9,0.2,1.4
			c0.1,0.5,0.2,1,0.3,1.4c0.1,0.5,0.2,0.9,0.3,1.4c0.1,0.5,0.2,0.9,0.3,1.3c0.1-0.4,0.3-0.8,0.4-1.2c0.1-0.4,0.3-0.8,0.4-1.2
			c0.1-0.4,0.2-0.8,0.3-1.2c0.1-0.4,0.2-0.7,0.3-1H95.1z"/>
		<path class="st0" d="M100.8,17.1h1.8v7.8h-1.8V17.1z"/>
		<path class="st0" d="M104.7,24.9v-7.8h5.2v1.5h-3.5v1.6h3.1v1.5h-3.1v3.2H104.7z"/>
		<path class="st0" d="M117.5,17.1v1.5h-2.4v6.3h-1.8v-6.3H111v-1.5H117.5z"/>
		<path class="st0" d="M127.3,24.9c-0.1-0.3-0.3-0.6-0.5-0.9c-0.2-0.4-0.5-0.7-0.7-1.1c-0.3-0.4-0.5-0.8-0.8-1.2s-0.6-0.8-0.9-1.2
			c-0.3-0.4-0.6-0.8-0.8-1.1c-0.3-0.4-0.5-0.7-0.7-0.9v6.6H122v-7.8h0.6c0.4,0.4,0.8,0.9,1.2,1.5c0.4,0.6,0.9,1.1,1.3,1.7
			c0.4,0.6,0.8,1.2,1.2,1.7c0.4,0.6,0.7,1,0.9,1.5v-6.4h0.8v7.8H127.3z"/>
		<path class="st0" d="M129.7,24.9v-7.8h4.5v0.7h-3.8v2.7h3.3v0.7h-3.3v3.1h4v0.7H129.7z"/>
		<path class="st0" d="M140.6,17.1v0.7h-2.5v7.2h-0.8v-7.2h-2.5v-0.7H140.6z"/>
		<path class="st0" d="M146.2,18c0.4,1.2,0.7,2.3,1.1,3.3c0.4,1,0.7,1.9,1.1,2.7c0.3-0.9,0.5-1.9,0.8-3.1c0.3-1.2,0.5-2.5,0.8-3.8
			h0.8c-0.1,0.8-0.3,1.6-0.4,2.3c-0.1,0.7-0.3,1.4-0.4,2c-0.2,0.6-0.3,1.2-0.5,1.8c-0.2,0.6-0.3,1.2-0.5,1.7H148
			c-0.2-0.4-0.4-0.9-0.5-1.3c-0.2-0.4-0.4-0.9-0.5-1.3c-0.2-0.5-0.3-0.9-0.5-1.4c-0.2-0.5-0.4-1-0.5-1.6c-0.2,0.6-0.4,1.1-0.5,1.6
			c-0.2,0.5-0.4,1-0.5,1.4c-0.2,0.5-0.3,0.9-0.5,1.3c-0.2,0.4-0.4,0.9-0.5,1.3h-0.8c-0.2-0.6-0.4-1.1-0.6-1.7
			c-0.2-0.6-0.3-1.2-0.5-1.8c-0.1-0.6-0.3-1.3-0.4-2s-0.3-1.5-0.4-2.3h0.8c0.1,0.7,0.2,1.3,0.4,1.9c0.1,0.6,0.2,1.3,0.4,1.8
			c0.1,0.6,0.3,1.2,0.4,1.7c0.1,0.5,0.3,1,0.4,1.5c0.3-0.8,0.7-1.7,1-2.7c0.4-1,0.7-2.1,1.1-3.3H146.2z"/>
		<path class="st0" d="M158.8,21c0,0.7-0.1,1.3-0.3,1.8c-0.2,0.5-0.5,0.9-0.8,1.3c-0.3,0.3-0.7,0.6-1.2,0.8
			c-0.4,0.2-0.9,0.3-1.4,0.3s-1-0.1-1.4-0.3c-0.4-0.2-0.8-0.4-1.2-0.8c-0.3-0.3-0.6-0.8-0.8-1.3s-0.3-1.1-0.3-1.8s0.1-1.3,0.3-1.8
			c0.2-0.5,0.5-0.9,0.8-1.3c0.3-0.3,0.7-0.6,1.2-0.8c0.4-0.2,0.9-0.3,1.4-0.3s1,0.1,1.4,0.3c0.4,0.2,0.8,0.4,1.2,0.8
			c0.3,0.3,0.6,0.8,0.8,1.3C158.7,19.7,158.8,20.3,158.8,21z M158,21c0-0.5-0.1-1-0.2-1.4c-0.1-0.4-0.3-0.8-0.6-1.1
			c-0.2-0.3-0.5-0.5-0.9-0.7c-0.4-0.2-0.7-0.2-1.2-0.2s-0.8,0.1-1.2,0.2c-0.4,0.2-0.7,0.4-0.9,0.7c-0.2,0.3-0.4,0.6-0.6,1.1
			c-0.1,0.4-0.2,0.9-0.2,1.4c0,0.5,0.1,1,0.2,1.4c0.1,0.4,0.3,0.8,0.6,1.1c0.2,0.3,0.5,0.5,0.9,0.7c0.4,0.2,0.7,0.2,1.2,0.2
			s0.8-0.1,1.2-0.2c0.4-0.2,0.7-0.4,0.9-0.7c0.2-0.3,0.4-0.7,0.6-1.1C157.9,22,158,21.5,158,21z"/>
		<path class="st0" d="M165.4,19.4c0,0.6-0.2,1.1-0.5,1.4c-0.3,0.3-0.7,0.6-1.2,0.7c0.1,0.2,0.3,0.4,0.5,0.6
			c0.2,0.3,0.4,0.5,0.6,0.8c0.2,0.3,0.4,0.6,0.6,1c0.2,0.3,0.4,0.6,0.5,0.9H165c-0.2-0.3-0.3-0.6-0.5-0.9c-0.2-0.3-0.4-0.6-0.6-0.9
			c-0.2-0.3-0.4-0.5-0.6-0.8c-0.2-0.2-0.3-0.5-0.5-0.6c-0.2,0-0.5,0-0.7,0h-1.3v3.2h-0.8v-7.7c0.3-0.1,0.6-0.1,1-0.2
			c0.4,0,0.7-0.1,1-0.1c1.1,0,1.9,0.2,2.4,0.6C165.1,18,165.4,18.6,165.4,19.4z M162.2,17.7c-0.3,0-0.5,0-0.8,0
			c-0.2,0-0.4,0-0.5,0.1v3.3h1.1c0.4,0,0.7,0,1-0.1c0.3,0,0.6-0.1,0.8-0.2c0.2-0.1,0.4-0.3,0.6-0.5c0.1-0.2,0.2-0.5,0.2-0.9
			c0-0.3-0.1-0.6-0.2-0.9c-0.1-0.2-0.3-0.4-0.5-0.5c-0.2-0.1-0.5-0.2-0.8-0.3C162.8,17.7,162.5,17.7,162.2,17.7z"/>
		<path class="st0" d="M171.6,24.9c-0.3-0.4-0.5-0.8-0.9-1.2c-0.3-0.4-0.7-0.7-1-1.1s-0.7-0.6-1.1-0.9c-0.4-0.3-0.7-0.5-1.1-0.7v3.9
			h-0.8v-7.8h0.8v3.6c0.3-0.3,0.6-0.6,1-0.9c0.4-0.3,0.7-0.7,1-1c0.3-0.3,0.7-0.7,1-1c0.3-0.3,0.5-0.6,0.7-0.8h0.9
			c-0.2,0.2-0.5,0.5-0.8,0.8c-0.3,0.3-0.6,0.6-1,1c-0.3,0.3-0.7,0.7-1,1c-0.3,0.3-0.7,0.6-0.9,0.9c0.2,0.1,0.5,0.3,0.7,0.5
			c0.3,0.2,0.5,0.4,0.8,0.7c0.3,0.2,0.5,0.5,0.8,0.7c0.3,0.3,0.5,0.5,0.7,0.8c0.2,0.3,0.4,0.5,0.6,0.8c0.2,0.2,0.3,0.5,0.4,0.7
			H171.6z"/>
		<path class="st0" d="M175,24.4c0.6,0,1.1-0.1,1.4-0.3c0.3-0.2,0.5-0.6,0.5-1.1c0-0.3-0.1-0.5-0.2-0.7c-0.1-0.2-0.3-0.4-0.4-0.5
			c-0.2-0.1-0.4-0.2-0.6-0.3c-0.2-0.1-0.5-0.2-0.7-0.3c-0.3-0.1-0.6-0.3-0.9-0.4c-0.3-0.1-0.5-0.3-0.7-0.5c-0.2-0.2-0.3-0.4-0.4-0.6
			s-0.1-0.5-0.1-0.8c0-0.7,0.2-1.2,0.7-1.5c0.4-0.3,1.1-0.5,1.9-0.5c0.2,0,0.4,0,0.6,0c0.2,0,0.4,0.1,0.6,0.1c0.2,0,0.3,0.1,0.5,0.2
			c0.1,0.1,0.3,0.1,0.4,0.2l-0.3,0.6c-0.2-0.2-0.5-0.3-0.8-0.4c-0.3-0.1-0.7-0.1-1-0.1c-0.2,0-0.5,0-0.7,0.1c-0.2,0-0.4,0.1-0.5,0.2
			c-0.2,0.1-0.3,0.2-0.4,0.4c-0.1,0.2-0.1,0.4-0.1,0.6c0,0.2,0,0.4,0.1,0.6c0.1,0.2,0.2,0.3,0.4,0.4c0.2,0.1,0.4,0.2,0.6,0.3
			c0.2,0.1,0.5,0.2,0.7,0.3c0.3,0.1,0.6,0.3,0.9,0.4c0.3,0.1,0.5,0.3,0.7,0.5c0.2,0.2,0.4,0.4,0.5,0.6c0.1,0.2,0.2,0.6,0.2,0.9
			c0,0.7-0.2,1.2-0.7,1.6c-0.5,0.4-1.2,0.5-2,0.5c-0.3,0-0.6,0-0.8-0.1c-0.2,0-0.5-0.1-0.7-0.1c-0.2-0.1-0.4-0.1-0.5-0.2
			c-0.1-0.1-0.2-0.1-0.3-0.2l0.2-0.7c0.1,0,0.2,0.1,0.3,0.2c0.1,0.1,0.3,0.1,0.5,0.2c0.2,0.1,0.4,0.1,0.6,0.1
			C174.5,24.4,174.7,24.4,175,24.4z"/>
	</g>
</g>
</svg>
