<?xml version="1.0" encoding="utf-8"?>
<!-- Generator: Adobe Illustrator 24.2.3, SVG Export Plug-In . SVG Version: 6.00 Build 0)  -->
<svg version="1.1" id="Layer_1" xmlns="http://www.w3.org/2000/svg" xmlns:xlink="http://www.w3.org/1999/xlink" x="0px" y="0px"
	 viewBox="0 0 238 42" style="enable-background:new 0 0 238 42;" xml:space="preserve">
<style type="text/css">
	.st0{fill:#EB1F22;}
	.st1{fill:none;}
	.st2{fill:#020203;}
</style>
<g>
	<g>
		<path class="st0" d="M25.2,2.7L5.6,15.9C7.8,8.3,14.9,2.6,23.2,2.6C23.9,2.6,24.5,2.6,25.2,2.7z"/>
		<path class="st0" d="M13.1,15.4L4.9,21c0-1,0.1-2.1,0.3-3.1L27.3,3.1c0.6,0.1,1.2,0.3,1.9,0.5l-16,10.7V15.4z"/>
		<path class="st0" d="M41.7,21c0,10.1-8.3,18.4-18.4,18.4c0,0,12.7-8.6,15.3-10.8c0.3-0.9,0.5-1.5,0.6-2.4L21,39.2
			c-1-0.1-1.9-0.4-3-0.6c0,0,17.2-10.9,21-14l0,0c0-0.8-0.2-1.7-0.4-2.5C34.6,24.6,16.4,37.5,16,37.8l0,0c-0.8-0.4-1.6-0.7-2.3-1.2
			c0,0,17.9-11.8,20.5-13.4c1.7-1.1,3.2-1.9,4.1-2.8c-0.3-0.7-0.6-1.5-1-2.2l-13.3,8.3v2l-11.7,7.2c-0.6-0.6-1.3-1.1-1.9-1.8
			l21.1-13.7c0,0,3.9-1.8,5-3.2l0,0c-0.5-0.7-1-1.4-1.6-1.9l-13.6,8.3v1.7L9.1,32.7c-0.6-0.7-1.2-1.6-1.7-2.5l25.8-16.6
			c-0.6-0.6-1.3-1-2-1.5l-13.8,8.5V22L6.7,28.9c-0.3-0.6-0.6-1.3-0.8-2l23.8-15.6c-1-0.5-2.1-0.9-3.2-1.2l-11.2,7.2v2l-9.7,6.2
			c-0.3-0.9-0.4-1.9-0.5-2.9L32.2,5l0,0C37.9,8.1,41.7,14.1,41.7,21z"/>
		<path class="st1" d="M5.6,15.9L5.6,15.9L5.6,15.9L5.6,15.9z"/>
		<polyline class="st1" points="5.5,25.5 15.2,19.4 15.2,17.4 26.5,10.2 		"/>
		<line class="st1" x1="29.7" y1="11.3" x2="5.9" y2="26.8"/>
		<polyline class="st1" points="6.7,28.9 17.4,22.1 17.4,20.7 31.2,12.1 		"/>
		<line class="st1" x1="33.2" y1="13.6" x2="7.4" y2="30.2"/>
		<polyline class="st1" points="34.7,15 21.2,23.4 21.2,25 9.1,32.7 9.1,32.7 		"/>
		<path class="st1" d="M10.2,33.9l21.1-13.7c0,0,3.9-1.8,5-3.2l0,0"/>
		<polyline class="st1" points="37.1,18.2 23.9,26.5 23.9,28.4 12.2,35.6 12.2,35.6 		"/>
		<path class="st1" d="M13.7,36.7c0,0,17.9-11.8,20.5-13.4c1.7-1.1,3.2-1.9,4.1-2.8"/>
		<path class="st1" d="M16,37.9c0.5-0.3,18.6-13.2,22.7-15.8"/>
		<path class="st1" d="M13.7,36.7c0.7,0.5,1.6,0.8,2.3,1.2l0,0h0.1"/>
		<path class="st1" d="M18,38.6L18,38.6c0,0,17.2-10.9,21-14l0,0"/>
		<path class="st1" d="M23.3,39.4c0,0,12.7-8.3,15.3-10.5"/>
		<line class="st1" x1="39.1" y1="26.1" x2="21" y2="39.2"/>
		<path class="st1" d="M29.7,11.3c-1-0.5-2.1-0.9-3.2-1.2"/>
		<path class="st1" d="M36.3,16.9L36.3,16.9c-0.5-0.7-1-1.4-1.6-1.9"/>
		<path class="st1" d="M39.1,24.6L39.1,24.6c0-0.8-0.2-1.7-0.4-2.5"/>
		<path class="st1" d="M39.1,26.1C39,27,38.8,28,38.5,28.9"/>
		<path class="st1" d="M38.1,20.4c-0.3-0.7-0.6-1.5-1-2.2"/>
		<path class="st1" d="M33.2,13.6c-0.6-0.6-1.3-1-2-1.5"/>
	</g>
	<g>
		<path class="st2" d="M52.9,25.3c0.5,0,0.9,0,1.2-0.1s0.6-0.2,0.8-0.3s0.3-0.3,0.4-0.5c0.1-0.2,0.1-0.4,0.1-0.6
			c0-0.5-0.2-0.9-0.7-1.3s-1.3-0.7-2.4-1.1c-0.5-0.2-1-0.4-1.5-0.6s-1-0.5-1.4-0.9c-0.4-0.3-0.7-0.8-1-1.3S48,17.5,48,16.8
			c0-0.7,0.1-1.3,0.4-1.9c0.3-0.6,0.6-1.1,1.1-1.5s1.1-0.7,1.8-0.9s1.5-0.3,2.4-0.3c1,0,1.9,0.1,2.7,0.3s1.4,0.5,1.9,0.7l-1,2.7
			c-0.4-0.2-0.9-0.4-1.4-0.6C55.4,15.1,54.7,15,54,15c-0.8,0-1.4,0.1-1.8,0.3c-0.4,0.2-0.5,0.6-0.5,1.1c0,0.3,0.1,0.5,0.2,0.7
			c0.1,0.2,0.3,0.4,0.6,0.5c0.2,0.2,0.5,0.3,0.8,0.4s0.7,0.3,1.1,0.4c0.8,0.3,1.5,0.6,2.1,0.9s1.1,0.6,1.5,1s0.7,0.8,0.9,1.4
			c0.2,0.5,0.3,1.1,0.3,1.9c0,1.4-0.5,2.5-1.5,3.3s-2.5,1.2-4.5,1.2c-0.7,0-1.3,0-1.8-0.1s-1-0.2-1.5-0.3c-0.4-0.1-0.8-0.2-1.1-0.4
			c-0.3-0.1-0.6-0.3-0.8-0.4l1-2.8c0.5,0.3,1,0.5,1.7,0.7C51.1,25.2,51.9,25.3,52.9,25.3z"/>
		<path class="st2" d="M72.3,14.2c0.2,0.6,0.4,1.3,0.6,2.1s0.4,1.5,0.7,2.4s0.5,1.6,0.7,2.4c0.3,0.8,0.5,1.6,0.7,2.3
			c0.2-0.8,0.4-1.6,0.6-2.5s0.4-1.8,0.6-2.8c0.2-0.9,0.4-1.9,0.5-2.8c0.2-0.9,0.3-1.8,0.5-2.7h3.6c-0.5,2.6-1.1,5.2-1.8,7.8
			c-0.7,2.6-1.4,5.2-2.2,7.5h-3.2c-0.5-1.4-1-2.9-1.5-4.5s-1-3.1-1.4-4.7c-0.5,1.6-0.9,3.1-1.4,4.7s-1,3.1-1.5,4.5h-3.2
			c-0.8-2.4-1.5-4.9-2.2-7.5s-1.3-5.3-1.8-7.8h3.8c0.1,0.9,0.3,1.8,0.5,2.7s0.4,1.9,0.6,2.8s0.4,1.9,0.6,2.8s0.4,1.7,0.6,2.5
			c0.3-0.7,0.5-1.5,0.8-2.3s0.5-1.6,0.7-2.4s0.5-1.6,0.7-2.4c0.2-0.8,0.4-1.4,0.5-2L72.3,14.2L72.3,14.2z"/>
		<path class="st2" d="M83.6,12.5h3.5v15.4h-3.5V12.5z"/>
		<path class="st2" d="M91.2,27.9V12.5h10.3v2.9h-6.8v3.2h6.1v2.9h-6.1v6.3h-3.5V27.9z"/>
		<path class="st2" d="M116.4,12.5v3h-4.6v12.4h-3.5V15.5h-4.6v-3H116.4z"/>
		<path class="st2" d="M135.6,27.9c-0.3-0.5-0.6-1.1-1.1-1.8c-0.4-0.7-0.9-1.4-1.4-2.2c-0.5-0.8-1.1-1.6-1.7-2.4
			c-0.6-0.8-1.1-1.7-1.7-2.4c-0.6-0.8-1.1-1.5-1.7-2.2c-0.5-0.7-1-1.3-1.4-1.8v13h-1.5V12.5h1.2c0.8,0.8,1.6,1.8,2.4,2.9
			c0.9,1.1,1.7,2.2,2.5,3.4c0.8,1.1,1.6,2.3,2.3,3.4s1.3,2,1.8,2.9V12.5h1.5v15.4H135.6z"/>
		<path class="st2" d="M140.3,27.9V12.5h8.9v1.3h-7.4v5.3h6.6v1.3h-6.6v6.1h7.9v1.3h-9.4V27.9z"/>
		<path class="st2" d="M161.7,12.5v1.3h-4.9v14.1h-1.5V13.8h-4.9v-1.3H161.7z"/>
		<path class="st2" d="M172.7,14.4c0.7,2.4,1.4,4.5,2.1,6.5c0.7,1.9,1.4,3.7,2.1,5.3c0.5-1.7,1-3.8,1.5-6.2s1-4.9,1.5-7.5h1.5
			c-0.3,1.6-0.5,3.1-0.8,4.5s-0.6,2.7-0.9,4c-0.3,1.3-0.6,2.4-0.9,3.6c-0.3,1.1-0.7,2.3-1.1,3.4h-1.6c-0.3-0.8-0.7-1.7-1-2.5
			s-0.7-1.7-1-2.6s-0.7-1.8-1-2.8s-0.7-2-1-3.1c-0.4,1.1-0.7,2.1-1,3.1s-0.7,1.9-1,2.8s-0.7,1.8-1,2.6c-0.3,0.8-0.7,1.7-1.1,2.5
			h-1.6c-0.4-1.1-0.8-2.2-1.1-3.4c-0.3-1.1-0.6-2.3-0.9-3.6c-0.3-1.2-0.6-2.6-0.8-3.9c-0.3-1.4-0.5-2.9-0.8-4.4h1.6
			c0.2,1.3,0.5,2.6,0.7,3.8c0.2,1.3,0.5,2.5,0.7,3.6s0.5,2.3,0.8,3.3s0.5,2,0.8,2.9c0.6-1.6,1.3-3.4,2-5.3s1.4-4.1,2.2-6.4h1.1V14.4
			z"/>
		<path class="st2" d="M197.4,20.2c0,1.3-0.2,2.5-0.6,3.5c-0.4,1-0.9,1.8-1.6,2.5c-0.7,0.7-1.4,1.2-2.3,1.5
			c-0.9,0.3-1.8,0.5-2.8,0.5s-1.9-0.2-2.8-0.5c-0.9-0.3-1.6-0.8-2.3-1.5s-1.2-1.5-1.6-2.5c-0.4-1-0.6-2.2-0.6-3.5s0.2-2.5,0.6-3.5
			c0.4-1,0.9-1.8,1.6-2.5c0.7-0.7,1.4-1.2,2.3-1.5c0.9-0.3,1.8-0.5,2.8-0.5s1.9,0.2,2.8,0.5c0.9,0.3,1.6,0.8,2.3,1.5
			s1.2,1.5,1.6,2.5S197.4,18.9,197.4,20.2z M195.8,20.2c0-1-0.1-2-0.4-2.8c-0.3-0.8-0.6-1.5-1.1-2.1s-1.1-1-1.8-1.3
			s-1.5-0.5-2.3-0.5s-1.6,0.2-2.3,0.5s-1.3,0.7-1.8,1.3s-0.9,1.3-1.1,2.1c-0.3,0.8-0.4,1.7-0.4,2.8c0,1,0.1,2,0.4,2.8
			c0.3,0.8,0.6,1.5,1.1,2.1s1.1,1,1.8,1.3s1.5,0.5,2.3,0.5s1.6-0.2,2.3-0.5s1.3-0.8,1.8-1.3c0.5-0.6,0.9-1.3,1.1-2.1
			C195.7,22.2,195.8,21.2,195.8,20.2z"/>
		<path class="st2" d="M210.4,17.1c0,1.2-0.3,2.1-0.9,2.7c-0.6,0.7-1.4,1.1-2.4,1.4c0.2,0.3,0.5,0.7,0.9,1.2s0.8,1.1,1.2,1.7
			s0.8,1.2,1.2,1.9c0.4,0.7,0.7,1.3,1,1.9h-1.6c-0.3-0.6-0.6-1.2-1-1.8s-0.7-1.2-1.1-1.7s-0.7-1.1-1.1-1.5c-0.4-0.5-0.7-0.9-0.9-1.2
			c-0.5,0-0.9,0.1-1.4,0.1h-2.5V28h-1.5V12.8c0.5-0.1,1.2-0.3,1.9-0.3c0.7-0.1,1.4-0.1,2-0.1c2.1,0,3.7,0.4,4.8,1.2
			S210.4,15.6,210.4,17.1z M204.2,13.7c-0.6,0-1.1,0-1.5,0.1c-0.4,0-0.8,0.1-1.1,0.1v6.5h2.1c0.7,0,1.4,0,2-0.1s1.2-0.2,1.6-0.4
			c0.5-0.2,0.8-0.6,1.1-1s0.4-1,0.4-1.8c0-0.7-0.1-1.2-0.4-1.7c-0.3-0.4-0.6-0.8-1-1.1s-0.9-0.4-1.5-0.5S204.8,13.7,204.2,13.7z"/>
		<path class="st2" d="M222.6,27.9c-0.5-0.8-1.1-1.5-1.7-2.3c-0.6-0.8-1.3-1.5-2-2.1c-0.7-0.7-1.4-1.3-2.1-1.8
			c-0.7-0.5-1.4-1-2.1-1.4v7.6h-1.5V12.5h1.5v7.2c0.6-0.5,1.2-1.1,1.9-1.7c0.7-0.7,1.4-1.3,2-2c0.7-0.7,1.3-1.3,1.9-1.9
			c0.6-0.6,1.1-1.1,1.4-1.5h1.8c-0.4,0.5-0.9,1-1.6,1.6c-0.6,0.6-1.3,1.3-1.9,1.9c-0.7,0.7-1.4,1.3-2,2s-1.3,1.2-1.8,1.7
			c0.4,0.3,0.9,0.6,1.4,1s1,0.8,1.5,1.3s1,1,1.5,1.5s1,1,1.4,1.5s0.8,1,1.2,1.5c0.3,0.5,0.6,0.9,0.9,1.4h-1.7V27.9z"/>
		<path class="st2" d="M229.2,26.9c1.2,0,2.1-0.2,2.8-0.7c0.7-0.4,1-1.1,1-2.1c0-0.6-0.1-1-0.3-1.4s-0.5-0.7-0.9-1s-0.8-0.5-1.2-0.7
			c-0.5-0.2-0.9-0.4-1.4-0.6c-0.6-0.2-1.2-0.5-1.7-0.8s-0.9-0.6-1.3-0.9c-0.4-0.3-0.6-0.7-0.8-1.1s-0.3-0.9-0.3-1.5
			c0-1.3,0.4-2.3,1.3-3c0.9-0.7,2.1-1,3.6-1c0.4,0,0.8,0,1.2,0.1s0.8,0.1,1.1,0.2s0.7,0.2,1,0.3s0.5,0.2,0.7,0.4l-0.5,1.3
			c-0.4-0.3-1-0.5-1.6-0.7s-1.3-0.3-2-0.3c-0.5,0-0.9,0-1.3,0.1c-0.4,0.1-0.8,0.3-1.1,0.5s-0.5,0.5-0.7,0.8s-0.3,0.7-0.3,1.2
			c0,0.5,0.1,0.9,0.3,1.2s0.4,0.6,0.7,0.8c0.3,0.2,0.7,0.5,1.1,0.6c0.4,0.2,0.9,0.4,1.4,0.6c0.6,0.3,1.2,0.5,1.7,0.8s1,0.5,1.4,0.9
			c0.4,0.3,0.7,0.8,1,1.2c0.2,0.5,0.4,1.1,0.4,1.8c0,1.4-0.5,2.4-1.5,3.1s-2.3,1-3.9,1c-0.6,0-1.1,0-1.6-0.1s-0.9-0.2-1.3-0.3
			c-0.4-0.1-0.7-0.2-1-0.3s-0.5-0.2-0.6-0.3l0.5-1.3c0.1,0.1,0.3,0.2,0.6,0.3c0.3,0.1,0.5,0.2,0.9,0.3c0.3,0.1,0.7,0.2,1.2,0.3
			C228.2,26.9,228.7,26.9,229.2,26.9z"/>
	</g>
</g>
</svg>
